<svg width="28" height="37" viewBox="0 0 28 37" fill="none" xmlns="http://www.w3.org/2000/svg">
<path fill-rule="evenodd" clip-rule="evenodd" d="M2.625 5.55V31.45C2.625 32.9826 3.80025 34.225 5.25 34.225H22.75C24.1997 34.225 25.375 32.9826 25.375 31.45V13.3989C25.375 12.6629 25.0984 11.9571 24.6062 11.4367L24.2877 11.1H19.25C18.2835 11.1 17.5 10.2717 17.5 9.25V3.92444L17.1815 3.58778C16.6893 3.06737 16.0216 2.775 15.3254 2.775H5.25C3.80025 2.775 2.625 4.01741 2.625 5.55ZM0 31.45V5.55C0 2.48482 2.35051 0 5.25 0H15.3254C16.7178 0 18.0531 0.584731 19.0377 1.62556L26.4623 9.47444C27.4469 10.5153 28 11.9269 28 13.3989V31.45C28 34.5152 25.6495 37 22.75 37H5.25C2.35051 37 0 34.5152 0 31.45ZM8.75 20.8125C8.02513 20.8125 7.4375 21.4337 7.4375 22.2C7.4375 22.9663 8.02513 23.5875 8.75 23.5875H19.25C19.9749 23.5875 20.5625 22.9663 20.5625 22.2C20.5625 21.4337 19.9749 20.8125 19.25 20.8125H8.75ZM7.4375 16.65C7.4375 15.8837 8.02513 15.2625 8.75 15.2625H12.25C12.9749 15.2625 13.5625 15.8837 13.5625 16.65C13.5625 17.4163 12.9749 18.0375 12.25 18.0375H8.75C8.02513 18.0375 7.4375 17.4163 7.4375 16.65ZM8.75 26.3625C8.02513 26.3625 7.4375 26.9837 7.4375 27.75C7.4375 28.5163 8.02513 29.1375 8.75 29.1375H19.25C19.9749 29.1375 20.5625 28.5163 20.5625 27.75C20.5625 26.9837 19.9749 26.3625 19.25 26.3625H8.75Z" fill="white"/>
</svg>
